<svg width="0" height="0" class="hidden">
  <symbol  version="1.1" id="car" xmlns="http://www.w3.org/2000/svg" xmlns:xlink="http://www.w3.org/1999/xlink" xml:space="preserve" viewBox="0 0 511 311">
    <g>
      <path d="M160,307.5h133.538c14.182,0,27.524-7.554,34.82-19.715l14.501-24.169c2.273-3.789,1.045-8.703-2.744-10.976
		c-3.788-2.273-8.702-1.045-10.976,2.744l-14.501,24.169c-4.421,7.369-12.507,11.947-21.101,11.947H160c-4.418,0-8,3.582-8,8
		S155.582,307.5,160,307.5z"></path>
      <path d="M504,323.569V299.5c0-48.523-39.477-88-88-88h-44.209c-12.392-9.747-62.874-48-91.791-48h-54
		c-11.001,0-21.904,1.664-32.403,4.945c-0.204,0.063-0.404,0.135-0.602,0.215l-73.691,29.675
		c-11.071,3.427-22.56,5.165-34.152,5.165H58.687c-0.379-0.778-0.884-1.51-1.53-2.157l-7.772-7.772
		C57.969,189.897,64,181.368,64,171.455V163.5c0-4.418-3.582-8-8-8H8c-4.418,0-8,3.582-8,8v7.955
		C0,184.713,10.787,195.5,24.045,195.5h4.642l8,8h-6.685C17.87,203.5,8,213.37,8,225.502V291.5c0,18.508,13.298,34.094,33.88,39.714
		C51.989,345.87,68.888,355.5,88,355.5c15.22,0,29.034-6.112,39.138-16h249.723c10.104,9.888,23.918,16,39.138,16
		s29.034-6.112,39.138-16H503c4.418,0,8-3.582,8-8C511,327.421,507.945,324.062,504,323.569z M16,171.5h32
		c-0.024,4.416-3.624,8-8.045,8h-15.91C19.624,179.5,16.024,175.916,16,171.5z M356.287,219.763
		c-3.571,2.505-6.227,5.165-8.059,7.339l-150.98-14.465C204.31,199.968,218.975,179.5,240,179.5h40
		C298.891,179.5,336.321,204.724,356.287,219.763z M24,291.5v-65.998c0-3.31,2.692-6.002,6.002-6.002h55.15
		c13.317,0,26.514-2.014,39.225-5.986c0.204-0.063,0.404-0.135,0.602-0.215l73.433-29.571c-1.999,2.142-3.953,4.431-5.85,6.899
		c-9.799,12.756-14.805,25.43-15.014,25.963c-0.913,2.336-0.677,4.965,0.638,7.102c1.314,2.136,3.554,3.533,6.051,3.772l167,16
		c0.28,0.027,0.559,0.041,0.835,0.041c2.931,0,5.573-1.5,6.942-4.153c0.559-0.939,7.435-11.851,24.986-11.851h32
		c39.701,0,72,32.299,72,72v24h-21.414c3.467-7.279,5.414-15.415,5.414-24c0-30.878-25.122-56-56-56s-56,25.122-56,56
		c0,8.585,1.947,16.721,5.414,24H138.586c3.467-7.279,5.414-15.415,5.414-24c0-30.878-25.122-56-56-56s-56,25.122-56,56
		c0,3.313,0.306,6.554,0.86,9.711C27.217,304.609,24,298.428,24,291.5z M48,299.5c0-22.056,17.944-40,40-40s40,17.944,40,40
		s-17.944,40-40,40S48,321.556,48,299.5z M416,339.5c-22.056,0-40-17.944-40-40s17.944-40,40-40s40,17.944,40,40
		S438.056,339.5,416,339.5z"></path>
      <path d="M112,291.5c-4.418,0-8,3.582-8,8c0,8.822-7.178,16-16,16s-16-7.178-16-16s7.178-16,16-16c4.418,0,8-3.582,8-8s-3.582-8-8-8
		c-17.645,0-32,14.355-32,32s14.355,32,32,32s32-14.355,32-32C120,295.082,116.418,291.5,112,291.5z"></path>
      <path d="M440,291.5c-4.418,0-8,3.582-8,8c0,8.822-7.178,16-16,16s-16-7.178-16-16s7.178-16,16-16c4.418,0,8-3.582,8-8s-3.582-8-8-8
		c-17.645,0-32,14.355-32,32s14.355,32,32,32s32-14.355,32-32C448,295.082,444.418,291.5,440,291.5z"></path>
    </g>
  </symbol>
  <symbol enable-background="new 0 0 50 50" id="flag" version="1.1" xml:space="preserve" xmlns="http://www.w3.org/2000/svg" xmlns:xlink="http://www.w3.org/1999/xlink" viewBox="0 0 50 50">
    <rect fill="none" height="50" width="50"></rect>
    <line fill="none" stroke="#000000" stroke-linecap="round" stroke-linejoin="round" stroke-miterlimit="10" stroke-width="2" x1="18.594" x2="3.373" y1="47.92" y2="5.407"></line>
    <path d="  M4.448,8.409c0,0,5.911-6.409,16.179-6.409c6.25,0,9.106,4.073,14.264,4.073C40.046,6.073,44.998,2,44.998,2v26.471  c0,0-3.723,2.037-8.146,2.037c-4.421,0-6.225-2.037-12.217-2.037c-5.683,0-11.025,5.516-11.025,5.516L4.448,8.409z" fill="none" stroke="#000000" stroke-linecap="round" stroke-linejoin="round" stroke-miterlimit="10" stroke-width="2"></path>
    <path d="M4.448,8.409c0,0,3.067-3.248,7.207-4.584l3.164,8.124c0,0-4.086,1.47-7.422,4.605L4.553,8.709"></path>
    <path d="M14.819,11.949l3.412,8.759c0,0,2.683-0.954,4.53-0.954s3.678,0.271,3.678,0.271l-2.477-9.315c0,0-0.7-0.099-1.563-0.099  C18.264,10.611,14.819,11.949,14.819,11.949z"></path>
    <path d="M10.72,25.776l2.89,8.21c0,0,3.997-3.832,7.804-4.91l-3.182-8.368C14.566,22.12,10.72,25.776,10.72,25.776z"></path>
    <path d="M21.676,2.111l2.287,8.598c1.85,0,6.994,2.521,6.994,2.521l-2.028-8.879C27.766,3.916,24.721,2.255,21.676,2.111z"></path>
    <path d="M26.439,20.024l2.355,8.851c1.186,0,4.586,1.449,6.065,1.449l-1.988-8.702C30.957,21.124,27.859,20.223,26.439,20.024z"></path>
    <path d="M30.957,13.231l1.915,8.392c0,0,1.916,0.354,3.231,0.354c1.314,0,2.953-0.298,2.953-0.298l-0.622-7.684  c0,0-1.269,0.394-2.807,0.394C33.225,14.389,30.957,13.231,30.957,13.231z"></path>
    <path d="M37.762,5.671l0.673,8.323c0,0,3.129-0.786,6.565-3.384L44.998,2C41.053,5.022,37.762,5.671,37.762,5.671z"></path>
    <path d="M39.057,21.679c0,0,3.014-0.559,5.941-2.259v9.051c-3.117,1.496-5.261,1.767-5.261,1.767L39.057,21.679z"></path>
  </symbol>
  <symbol xmlns="http://www.w3.org/2000/svg" viewBox="0 -960 960 960" id="delete">
    <path d="M280-120q-33 0-56.5-23.5T200-200v-520h-40v-80h200v-40h240v40h200v80h-40v520q0 33-23.5 56.5T680-120H280Zm400-600H280v520h400v-520ZM360-280h80v-360h-80v360Zm160 0h80v-360h-80v360ZM280-720v520-520Z"></path>
  </symbol>
  <symbol xmlns="http://www.w3.org/2000/svg" viewBox="0 -960 960 960" id="settings">
    <path d="m482-320 140-140q17-17 22-41.5t-5-47.5q-10-23-30-37t-45-14q-25 0-45 15.5T482-552q-18-17-37.5-32.5T400-600q-25 0-45.5 13.5T324-550q-10 23-4.5 47.5T342-460l140 140ZM370-80l-16-128q-13-5-24.5-12T307-235l-119 50L78-375l103-78q-1-7-1-13.5v-27q0-6.5 1-13.5L78-585l110-190 119 50q11-8 23-15t24-12l16-128h220l16 128q13 5 24.5 12t22.5 15l119-50 110 190-103 78q1 7 1 13.5v27q0 6.5-2 13.5l103 78-110 190-118-50q-11 8-23 15t-24 12L590-80H370Zm70-80h79l14-106q31-8 57.5-23.5T639-327l99 41 39-68-86-65q5-14 7-29.5t2-31.5q0-16-2-31.5t-7-29.5l86-65-39-68-99 42q-22-23-48.5-38.5T533-694l-13-106h-79l-14 106q-31 8-57.5 23.5T321-633l-99-41-39 68 86 64q-5 15-7 30t-2 32q0 16 2 31t7 30l-86 65 39 68 99-42q22 23 48.5 38.5T427-266l13 106Zm40-320Z"></path>
  </symbol>
  <symbol enable-background="new 0 0 64 64" id="power" version="1.1" xml:space="preserve" xmlns="http://www.w3.org/2000/svg" xmlns:xlink="http://www.w3.org/1999/xlink" viewBox="0 0 64 64">
    <path d="M56.826,32C56.826,18.311,45.689,7.174,32,7.174S7.174,18.311,7.174,32S18.311,56.826,32,56.826S56.826,45.689,56.826,32z   M34.437,31.962c0,1.301-1.054,2.356-2.356,2.356c-1.301,0-2.356-1.055-2.356-2.356V19.709c0-1.301,1.055-2.356,2.356-2.356  c1.301,0,2.356,1.054,2.356,2.356V31.962z M48.031,32.041c0,8.839-7.191,16.03-16.031,16.03s-16.031-7.191-16.031-16.03  c0-4.285,1.669-8.313,4.701-11.34c0.46-0.46,1.062-0.689,1.665-0.689s1.207,0.23,1.667,0.691c0.92,0.921,0.919,2.412-0.002,3.332  c-2.139,2.138-3.318,4.981-3.318,8.006c0,6.24,5.077,11.317,11.318,11.317s11.318-5.077,11.318-11.317  c0-3.023-1.176-5.865-3.314-8.003c-0.92-0.921-0.919-2.412,0.001-3.333c0.921-0.921,2.412-0.919,3.333,0.001  C46.364,23.734,48.031,27.76,48.031,32.041z"></path>
  </symbol>
  <symbol xmlns="http://www.w3.org/2000/svg" viewBox="0 0 256 256" id="stop">
    <rect fill="none" height="256" width="256"></rect>
    <path d="M128,24A104,104,0,1,0,232,128,104.2,104.2,0,0,0,128,24Zm32,128a8,8,0,0,1-8,8H104a8,8,0,0,1-8-8V104a8,8,0,0,1,8-8h48a8,8,0,0,1,8,8Z"></path>
  </symbol>
</svg>