<svg width="0" height="0" class="hidden">
  <symbol xmlns="http://www.w3.org/2000/svg" viewBox="0 0 20 20" id="car">
    <path d="M16.9767 13.8424C17.5805 13.5665 18 12.9572 18 12.25V11.0366C18 9.90393 17.2385 8.9128 16.1442 8.62097L14.0514 8.06289L12.5086 5.28589C12.0677 4.49223 11.2311 4 10.3232 4H6.94152C5.86544 4 4.9101 4.68857 4.56981 5.70943L3.74709 8.17758C2.7128 8.50372 2 9.46543 2 10.5616V12.25C2 12.9572 2.41951 13.5665 3.02326 13.8424C3.19019 15.0611 4.23545 16 5.5 16C6.70948 16 7.71836 15.1411 7.94999 14H12.05C12.2816 15.1411 13.2905 16 14.5 16C15.7645 16 16.8098 15.0611 16.9767 13.8424ZM6.94152 5H8V8H4.86038L5.51849 6.02566C5.72267 5.41314 6.29587 5 6.94152 5ZM11.6344 5.77154L12.8725 8H9V5H10.3232C10.8679 5 11.3699 5.29534 11.6344 5.77154ZM4 13.5C4 12.6716 4.67157 12 5.5 12C6.32843 12 7 12.6716 7 13.5C7 14.3284 6.32843 15 5.5 15C4.67157 15 4 14.3284 4 13.5ZM13 13.5C13 12.6716 13.6716 12 14.5 12C15.3284 12 16 12.6716 16 13.5C16 14.3284 15.3284 15 14.5 15C13.6716 15 13 14.3284 13 13.5Z"></path>
  </symbol>
  <symbol xmlns="http://www.w3.org/2000/svg" viewBox="0 0 576 512" id="flag">
    <path d="M509.5 .0234c-6.145 0-12.53 1.344-18.64 4.227c-44.11 20.86-76.81 27.94-104.1 27.94c-57.89 0-91.53-31.86-158.2-31.87C195 .3203 153.3 8.324 96 32.38V32c0-17.75-14.25-32-32-32S32 14.25 32 32L31.96 496c0 8.75 7.25 16 16 16H80C88.75 512 96 504.8 96 496V384c51.74-23.86 92.71-31.82 128.3-31.82c71.09 0 120.6 31.78 191.7 31.78c30.81 0 65.67-5.969 108.1-23.09C536.3 355.9 544 344.4 544 332.1V30.74C544 12.01 527.8 .0234 509.5 .0234zM480 141.8c-31.99 14.04-57.81 20.59-80 22.49v80.21c25.44-1.477 51.59-6.953 80-17.34V308.9c-22.83 7.441-43.93 11.08-64.03 11.08c-5.447 0-10.71-.4258-15.97-.8906V244.5c-4.436 .2578-8.893 .6523-13.29 .6523c-25.82 0-47.35-4.547-66.71-10.08v66.91c-23.81-6.055-50.17-11.41-80-12.98V213.1C236.2 213.7 232.5 213.3 228.5 213.3C208.8 213.3 185.1 217.7 160 225.1v69.1C139.2 299.4 117.9 305.8 96 314.4V250.7l24.77-10.39C134.8 234.5 147.6 229.9 160 225.1V143.4C140.9 148.5 120.1 155.2 96 165.3V101.8l24.77-10.39C134.8 85.52 147.6 80.97 160 77.02v66.41c26.39-6.953 49.09-10.17 68.48-10.16c4.072 0 7.676 .4453 11.52 .668V65.03C258.6 66.6 274.4 71.55 293.2 77.83C301.7 80.63 310.7 83.45 320 86.12v66.07c20.79 6.84 41.45 12.96 66.71 12.96c4.207 0 8.781-.4766 13.29-.8594V95.54c25.44-1.477 51.59-6.953 80-17.34V141.8zM240 133.9v80.04c18.61 1.57 34.37 6.523 53.23 12.8C301.7 229.6 310.7 232.4 320 235.1V152.2C296.1 144.3 271.6 135.8 240 133.9z"></path>
  </symbol>

</svg>